<svg xmlns="http://www.w3.org/2000/svg" viewBox="0 0 89.77 89.77"><defs><style>.cls-1{fill:#0ff1bb;}.cls-2{fill:#fff0f0;}</style></defs><g id="Layer_2" data-name="Layer 2"><g id="Layer_1-2" data-name="Layer 1"><circle class="cls-1" cx="44.88" cy="44.88" r="44.88"/><path class="cls-2" d="M41.4,36.71a2,2,0,0,0,.16,1.48,2.79,2.79,0,0,0,.18.34,6.41,6.41,0,0,0,2.78,1.93l7.69,3.47q5.82,2.64,8.14,6a9.22,9.22,0,0,1,1.25,7.77,11.87,11.87,0,0,1-4.36,6.72,16.51,16.51,0,0,1-8,3.09A27.2,27.2,0,0,1,39,66.76q-9.09-2.28-13.29-7.3a13.7,13.7,0,0,1-3.26-11.25l14.16,3.56a4.15,4.15,0,0,0,1.14,3.38,7.53,7.53,0,0,0,3.76,2,7.05,7.05,0,0,0,3.41.14,2.22,2.22,0,0,0,1.79-1.58,2.18,2.18,0,0,0-.67-2.09A10.76,10.76,0,0,0,42.9,51.7l-6.71-3q-5.8-2.56-8.09-6.31a10.38,10.38,0,0,1-1.19-7.88l-2.3-.58L25.7,29.6l2.82.71A10.77,10.77,0,0,1,31,27.51a14.12,14.12,0,0,1,7.44-2.79,25.3,25.3,0,0,1,6.39.2l1-.81,1.79-1.48a2.5,2.5,0,0,1,3.92,1l.88,2.14L52.88,27a20.29,20.29,0,0,1,8.37,5.61,12.41,12.41,0,0,1,3,6.64l3.25.82-1.09,4.32L50.87,40.53a3.69,3.69,0,0,0-.32-2.31A5.22,5.22,0,0,0,49,36.38a7,7,0,0,0-2.48-1.13,7.15,7.15,0,0,0-3.32-.13A2.08,2.08,0,0,0,41.4,36.71Z"/></g></g></svg>